# File created by Blade
# Date/Time:  Wed Jan 28 15:39:58 2015
#---------------------------------------------------------
:version 1.10
:name HOM
:units
  mass 1.0
  length 1.000000
  angle deg
:documentation
     Acclaim Skeleton File
:root
   axis xyz
   order TX TY TZ RX RY RZ
   position 0.000000 0.000000 0.000000
   orientation 0 0 0
:bonedata
   begin
      id 1
      name Spine_dum
      direction 0.000000 1.000000 0.000000
      length 6.864287
      axis 0.0 0.0 0.0 xyz
   end
   begin
      id 2
      name LeftUpLeg_dum
      direction 1.000000 0.000000 0.000000
      length 4.117376
      axis 0.0 0.0 0.0 xyz
   end
   begin
      id 3
      name RightUpLeg_dum
      direction -1.000000 0.000000 0.000000
      length 4.117376
      axis 0.0 0.0 0.0 xyz
   end
   begin
      id 4
      name Spine
      direction 0.000000 1.000000 0.000000
      length 0.000000
      axis 0.0 0.0 0.0 xyz
      dof rx ry rz
   end
   begin
      id 5
      name Spine_dum1
      direction 0.000000 1.000000 0.000000
      length 15.393827
      axis 0.0 0.0 0.0 xyz
   end
   begin
      id 6
      name Spine_dum2
      direction 0.000000 1.000000 0.000000
      length 9.314826
      axis 0.0 0.0 0.0 xyz
   end
   begin
      id 7
      name Spine_dum3
      direction 0.000000 1.000000 0.000000
      length 9.314826
      axis 0.0 0.0 0.0 xyz
   end
   begin
      id 8
      name Head
      direction 0.000000 1.000000 0.000000
      length 4.527550
      axis 0.0 0.0 0.0 xyz
      dof rx ry rz
   end
   begin
      id 9
      name LeftShoulder
      direction 1.000000 0.000000 0.000000
      length 8.275398
      axis 0.0 0.0 -90.0 xyz
      dof rx ry rz
   end
   begin
      id 10
      name LeftArm
      direction 1.000000 0.000000 0.000000
      length 12.002200
      axis 0.0 0.0 -90.0 xyz
      dof rx ry rz
   end
   begin
      id 11
      name LeftForeArm
      direction 1.000000 0.000000 0.000000
      length 10.144633
      axis 0.0 0.0 -90.0 xyz
      dof ry rz rx
   end
   begin
      id 12
      name LeftHand
      direction 0.000000 0.000000 0.000000
      length 0.000000
      axis 0.0 0.0 -90.0 xyz
      dof rx ry rz
   end
   begin
      id 13
      name LeftHand_dum1
      direction 0.000000 0.000000 0.000000
      length 0.000000
      axis 0.0 0.0 -90.0 xyz
   end
   begin
      id 14
      name LeftHand_dum2
      direction 1.000000 0.000000 0.000000
      length 3.937000
      axis 0.0 0.0 -90.0 xyz
   end
   begin
      id 15
      name LeftHandThumb1
      direction 0.000000 0.000000 1.000000
      length 3.937000
      axis 0.0 0.0 -90.0 xyz
      dof rx rz ry
   end
   begin
      id 16
      name RightShoulder
      direction -1.000000 0.000000 0.000000
      length 8.275398
      axis 0.0 0.0 90.0 xyz
      dof rx ry rz
   end
   begin
      id 17
      name RightArm
      direction -1.000000 0.000000 0.000000
      length 12.002200
      axis 0.0 0.0 90.0 xyz
      dof rx ry rz
   end
   begin
      id 18
      name RightForeArm
      direction -1.000000 0.000000 0.000000
      length 10.144633
      axis 0.0 0.0 90.0 xyz
      dof ry rz rx
   end
   begin
      id 19
      name RightHand
      direction 0.000000 0.000000 0.000000
      length 0.000000
      axis 0.0 0.0 90.0 xyz
      dof rx ry rz
   end
   begin
      id 20
      name RightHand_dum1
      direction 0.000000 0.000000 0.000000
      length 0.000000
      axis 0.0 0.0 90.0 xyz
   end
   begin
      id 21
      name RightHand_dum2
      direction -1.000000 0.000000 0.000000
      length 3.937000
      axis 0.0 0.0 90.0 xyz
   end
   begin
      id 22
      name RightHandThumb1
      direction 0.000000 0.000000 1.000000
      length 3.937000
      axis 0.0 0.0 90.0 xyz
      dof rx rz ry
   end
   begin
      id 23
      name LeftUpLeg
      direction 0.000000 -1.000000 0.000000
      length 19.394322
      axis 0.0 0.0 0.0 xyz
      dof rx ry rz
   end
   begin
      id 24
      name LeftLeg
      direction 0.000000 -1.000000 0.000000
      length 17.609563
      axis 0.0 0.0 0.0 xyz
      dof rx ry rz
   end
   begin
      id 25
      name LeftFoot
      direction 0.000000 -0.258819 0.965926
      length 6.085393
      axis 15.0 0.0 0.0 xyz
      dof rx ry rz
   end
   begin
      id 26
      name LeftToeBase
      direction 0.000000 0.000000 1.000000
      length 2.952750
      axis 0.0 0.0 0.0 xyz
      dof rx ry rz
   end
   begin
      id 27
      name RightUpLeg
      direction 0.000000 -1.000000 0.000000
      length 19.394322
      axis 0.0 0.0 0.0 xyz
      dof rx ry rz
   end
   begin
      id 28
      name RightLeg
      direction 0.000000 -1.000000 0.000000
      length 17.609563
      axis 0.0 0.0 0.0 xyz
      dof rx ry rz
   end
   begin
      id 29
      name RightFoot
      direction 0.000000 -0.258819 0.965926
      length 6.085393
      axis 15.0 0.0 0.0 xyz
      dof rx ry rz
   end
   begin
      id 30
      name RightToeBase
      direction 0.000000 0.000000 1.000000
      length 2.952750
      axis 0.0 0.0 0.0 xyz
      dof rx ry rz
   end
:hierarchy
   begin
      root Spine_dum LeftUpLeg_dum RightUpLeg_dum
      Spine_dum Spine
      LeftUpLeg_dum LeftUpLeg
      RightUpLeg_dum RightUpLeg
      Spine Spine_dum1 Spine_dum2 Spine_dum3
      Spine_dum1 Head
      Spine_dum2 LeftShoulder
      Spine_dum3 RightShoulder
      LeftShoulder LeftArm
      LeftArm LeftForeArm
      LeftForeArm LeftHand
      LeftHand LeftHand_dum1 LeftHand_dum2
      LeftHand_dum1 LeftHandThumb1
      RightShoulder RightArm
      RightArm RightForeArm
      RightForeArm RightHand
      RightHand RightHand_dum1 RightHand_dum2
      RightHand_dum1 RightHandThumb1
      LeftUpLeg LeftLeg
      LeftLeg LeftFoot
      LeftFoot LeftToeBase
      RightUpLeg RightLeg
      RightLeg RightFoot
      RightFoot RightToeBase
   end

# File created by Blade
# Date/Time:  Wed Jan 28 15:40:07 2015
# Frame Rate: 120.000 fps
#------------------------------------------------------
:FULLY-SPECIFIED
:DEGREES
519
root -6.979479 40.415747 -11.970057 3.131814 -50.323298 44.291417
Spine 5.153081 8.569887 1.982566
Head -9.276672 11.724313 -20.362010
LeftShoulder -18.867479 19.486394 -4.513033
LeftArm 9.601600 11.580580 -75.466916
LeftForeArm -2.806531 -0.000000 12.010373
LeftHand 0.001334 -0.000000 -17.411342
LeftHandThumb1 -26.253704 0.000000 33.147579
RightShoulder -4.643897 8.981707 -32.863489
RightArm 17.435034 49.311041 51.689147
RightForeArm -5.470485 -0.000000 75.020144
RightHand -10.582543 0.000000 -42.226930
RightHandThumb1 -24.326973 -0.000000 -32.862282
LeftUpLeg -16.303406 -11.642920 17.325857
LeftLeg 146.530606 -0.000000 -0.000000
LeftFoot 20.479702 -4.108600 -26.116252
LeftToeBase 4.843601 -0.000000 -0.000000
RightUpLeg -44.706113 -9.033168 -16.845964
RightLeg 20.825099 -0.000000 -0.000000
RightFoot -23.475440 -16.162620 14.786876
RightToeBase 11.626489 -0.000000 -0.000000
520
root -6.969418 40.425261 -11.970408 3.313567 -50.209181 44.300433
Spine 5.064073 8.583216 2.364634
Head -9.183399 11.854937 -20.738154
LeftShoulder -18.915649 19.586766 -4.695823
LeftArm 9.637154 11.428865 -75.579968
LeftForeArm -2.513226 -0.000000 12.029919
LeftHand -0.087954 -0.000000 -17.413894
LeftHandThumb1 -26.253704 0.000000 33.147579
RightShoulder -4.674619 8.939576 -33.045022
RightArm 17.788656 49.487364 51.605217
RightForeArm -5.735339 -0.000000 74.753252
RightHand -10.609587 -0.000000 -42.581765
RightHandThumb1 -24.326973 -0.000000 -32.862282
LeftUpLeg -16.287568 -11.545941 17.350364
LeftLeg 146.557507 -0.000000 -0.000000
LeftFoot 20.342013 -3.938234 -26.098297
LeftToeBase 4.687758 -0.000000 -0.000000
RightUpLeg -44.830436 -9.203647 -16.848826
RightLeg 20.802399 -0.000000 -0.000000
RightFoot -23.537758 -15.970140 15.035595
RightToeBase 11.806038 -0.000000 -0.000000
521
root -6.958769 40.435080 -11.969681 3.444812 -50.087859 44.352728
Spine 5.010263 8.535869 2.701600
Head -9.172005 12.033932 -21.059681
LeftShoulder -19.031582 19.555809 -4.825635
LeftArm 9.598683 11.507288 -75.707802
LeftForeArm -2.322633 -0.000000 11.985241
LeftHand -0.094227 -0.000000 -17.231673
LeftHandThumb1 -26.253704 0.000000 33.147579
RightShoulder -4.669784 8.961689 -33.191117
RightArm 18.033958 49.669184 51.472410
RightForeArm -5.942993 0.000000 74.577864
RightHand -10.555057 -0.000000 -42.452278
RightHandThumb1 -24.326973 -0.000000 -32.862282
LeftUpLeg -16.229515 -11.470362 17.339578
LeftLeg 146.603884 -0.000000 -0.000000
LeftFoot 20.127514 -3.846436 -26.073197
LeftToeBase 4.644402 -0.000000 -0.000000
RightUpLeg -44.936324 -9.387691 -16.869724
RightLeg 20.758683 -0.000000 -0.000000
RightFoot -23.524761 -15.926053 15.052255
RightToeBase 11.834180 -0.000000 -0.000000
522
root -6.950105 40.442492 -11.969049 3.579176 -49.970422 44.389923
Spine 4.946342 8.516604 3.062860
Head -9.097419 12.160210 -21.393258
LeftShoulder -19.065949 19.486247 -4.934030
LeftArm 9.459026 11.425305 -75.861088
LeftForeArm -2.067163 -0.000000 11.965317
LeftHand -0.172616 0.000000 -17.261824
LeftHandThumb1 -26.253704 0.000000 33.147579
RightShoulder -4.659075 9.030594 -33.369971
RightArm 18.199445 49.734665 51.245585
RightForeArm -6.371045 0.000000 74.314182
RightHand -10.871537 -0.000000 -42.825672
RightHandThumb1 -24.326973 -0.000000 -32.862282
LeftUpLeg -16.163830 -11.400271 17.358824
LeftLeg 146.650997 -0.000000 -0.000000
LeftFoot 19.891961 -3.608388 -26.339409
LeftToeBase 4.872353 -0.000000 -0.000000
RightUpLeg -45.041262 -9.544211 -16.886390
RightLeg 20.736468 -0.000000 -0.000000
RightFoot -23.564165 -15.886126 15.108566
RightToeBase 11.976916 -0.000000 -0.000000
523
root -6.944902 40.450305 -11.966197 3.711916 -49.844404 44.425669
Spine 4.883967 8.515348 3.448082
Head -9.024794 12.254417 -21.758375
LeftShoulder -19.105008 19.582694 -5.134503
LeftArm 9.502462 11.447846 -75.916839
LeftForeArm -1.991364 -0.000000 11.938712
LeftHand -0.158325 -0.000000 -17.209233
LeftHandThumb1 -26.253704 0.000000 33.147579
RightShoulder -4.658499 9.153665 -33.574771
RightArm 18.185275 49.875853 51.024591
RightForeArm -6.391985 -0.000000 74.196592
RightHand -10.802843 0.000000 -42.372038
RightHandThumb1 -24.326973 -0.000000 -32.862282
LeftUpLeg -16.091251 -11.317715 17.365744
LeftLeg 146.687631 -0.000000 -0.000000
LeftFoot 19.753290 -3.507391 -26.252646
LeftToeBase 4.406703 -0.000000 -0.000000
RightUpLeg -45.135496 -9.725035 -16.886880
RightLeg 20.711517 -0.000000 -0.000000
RightFoot -23.644691 -15.825698 15.257262
RightToeBase 12.102976 -0.000000 -0.000000
524
root -6.937417 40.457261 -11.965060 3.828088 -49.717443 44.478046
Spine 4.818931 8.525466 3.796588
Head -8.937553 12.330078 -22.024156
LeftShoulder -19.092388 19.613786 -5.243567
LeftArm 9.432564 11.421806 -76.047288
LeftForeArm -1.773627 -0.000000 11.952175
LeftHand -0.293965 -0.000000 -17.173634
LeftHandThumb1 -26.253704 0.000000 33.147579
RightShoulder -4.664452 9.058115 -33.726525
RightArm 18.475832 50.055862 50.936274
RightForeArm -6.719108 -0.000000 73.890680
RightHand -10.736019 -0.000000 -42.260894
RightHandThumb1 -24.326973 -0.000000 -32.862282
LeftUpLeg -16.007236 -11.242653 17.360382
LeftLeg 146.733545 -0.000000 -0.000000
LeftFoot 19.566520 -3.397274 -26.122540
LeftToeBase 4.568522 -0.000000 -0.000000
RightUpLeg -45.228241 -9.893957 -16.909598
RightLeg 20.682822 -0.000000 -0.000000
RightFoot -23.679992 -15.798232 15.334973
RightToeBase 12.057267 -0.000000 -0.000000
525
root -6.927681 40.466097 -11.962381 3.917126 -49.583468 44.599283
Spine 4.718446 8.521188 4.082431
Head -8.835980 12.429133 -22.237920
LeftShoulder -19.164069 19.585086 -5.330132
LeftArm 9.382898 11.467658 -76.168741
LeftForeArm -1.812405 0.000000 11.850672
LeftHand -0.304731 -0.000000 -17.197887
LeftHandThumb1 -26.253704 0.000000 33.147579
RightShoulder -4.689071 9.092857 -33.863647
RightArm 18.672729 50.082635 50.712861
RightForeArm -6.908079 0.000000 73.485276
RightHand -10.831125 -0.000000 -42.357897
RightHandThumb1 -24.326973 -0.000000 -32.862282
LeftUpLeg -15.947900 -11.194726 17.317300
LeftLeg 146.789869 -0.000000 -0.000000
LeftFoot 19.429448 -3.278404 -26.270123
LeftToeBase 4.562451 -0.000000 -0.000000
RightUpLeg -45.352710 -10.095134 -16.972537
RightLeg 20.658593 -0.000000 -0.000000
RightFoot -23.751718 -15.812106 15.414788
RightToeBase 12.334383 -0.000000 -0.000000
526
root -6.922989 40.473055 -11.958949 3.985097 -49.437519 44.649189
Spine 4.714628 8.494994 4.444260
Head -8.770877 12.502909 -22.462678
LeftShoulder -19.232346 19.550180 -5.431584
LeftArm 9.359419 11.537828 -76.296389
LeftForeArm -1.698415 -0.000000 11.715183
LeftHand -0.217434 0.000000 -17.049540
LeftHandThumb1 -26.253704 0.000000 33.147579
RightShoulder -4.687324 9.206309 -34.004790
RightArm 18.812830 50.236291 50.516092
RightForeArm -6.739776 -0.000000 73.063604
RightHand -10.493151 0.000000 -41.917299
RightHandThumb1 -24.326973 -0.000000 -32.862282
LeftUpLeg -15.818867 -11.157413 17.308952
LeftLeg 146.838660 -0.000000 -0.000000
LeftFoot 19.362094 -3.116781 -26.303702
LeftToeBase 4.521908 -0.000000 -0.000000
RightUpLeg -45.391723 -10.269230 -17.000954
RightLeg 20.649092 -0.000000 -0.000000
RightFoot -23.811141 -15.741050 15.559408
RightToeBase 12.271963 -0.000000 -0.000000
527
root -6.917966 40.479270 -11.957616 4.073781 -49.314483 44.698335
Spine 4.671999 8.478199 4.782554
Head -8.680196 12.545167 -22.623447
LeftShoulder -19.236238 19.512360 -5.490617
LeftArm 9.181247 11.419683 -76.495633
LeftForeArm -1.679300 0.000000 11.731891
LeftHand -0.284111 0.000000 -17.036074
LeftHandThumb1 -26.253704 0.000000 33.147579
RightShoulder -4.670377 9.193384 -34.123892
RightArm 19.041019 50.461085 50.395392
RightForeArm -6.274880 -0.000000 72.625491
RightHand -10.009967 -0.000000 -41.410153
RightHandThumb1 -24.326973 -0.000000 -32.862282
LeftUpLeg -15.696377 -11.117146 17.320996
LeftLeg 146.879874 -0.000000 -0.000000
LeftFoot 19.368963 -3.027212 -26.330688
LeftToeBase 4.463138 -0.000000 -0.000000
RightUpLeg -45.466856 -10.413398 -17.035953
RightLeg 20.656024 -0.000000 -0.000000
RightFoot -23.868521 -15.705128 15.649206
RightToeBase 12.397500 -0.000000 -0.000000
528
root -6.911467 40.486393 -11.956497 4.145415 -49.194054 44.813202
Spine 4.600893 8.529804 5.059452
Head -8.582500 12.551109 -22.745617
LeftShoulder -19.251897 19.576287 -5.570641
LeftArm 9.176445 11.333417 -76.643531
LeftForeArm -1.588996 -0.000000 11.673803
LeftHand -0.376073 -0.000000 -17.043887
LeftHandThumb1 -26.253704 0.000000 33.147579
RightShoulder -4.721146 9.189617 -34.228152
RightArm 19.321960 50.350936 50.124290
RightForeArm -7.167267 -0.000000 71.914788
RightHand -10.603050 -0.000000 -42.324042
RightHandThumb1 -24.326973 -0.000000 -32.862282
LeftUpLeg -15.603749 -11.068586 17.307199
LeftLeg 146.926987 -0.000000 -0.000000
LeftFoot 19.348353 -3.001155 -26.325088
LeftToeBase 4.646511 -0.000000 -0.000000
RightUpLeg -45.594314 -10.581971 -17.103461
RightLeg 20.697193 -0.000000 -0.000000
RightFoot -23.929789 -15.632228 15.737521
RightToeBase 12.341333 -0.000000 -0.000000
529
root -6.905340 40.491473 -11.955116 4.228581 -49.087188 44.919133
Spine 4.510533 8.542878 5.339302
Head -8.499546 12.597893 -22.858729
LeftShoulder -19.281842 19.535371 -5.623079
LeftArm 9.003928 11.207653 -76.818228
LeftForeArm -1.467306 0.000000 11.675335
LeftHand -0.496469 -0.000000 -16.958823
LeftHandThumb1 -26.253704 0.000000 33.147579
RightShoulder -4.712277 9.247771 -34.362895
RightArm 19.460742 50.361335 49.929763
RightForeArm -7.356410 -0.000000 71.378784
RightHand -10.514677 -0.000000 -42.486951
RightHandThumb1 -24.326973 -0.000000 -32.862282
LeftUpLeg -15.519223 -10.956224 17.287770
LeftLeg 146.966657 -0.000000 -0.000000
LeftFoot 19.344270 -2.861031 -26.273832
LeftToeBase 4.840742 -0.000000 -0.000000
RightUpLeg -45.740185 -10.737115 -17.168025
RightLeg 20.758927 -0.000000 -0.000000
RightFoot -24.009017 -15.531183 15.880139
RightToeBase 12.441796 -0.000000 -0.000000
530
root -6.901656 40.496617 -11.954036 4.309382 -48.962206 44.998701
Spine 4.455439 8.522803 5.652578
Head -8.441984 12.534045 -22.981009
LeftShoulder -19.357425 19.487907 -5.695863
LeftArm 8.892592 11.200720 -76.974288
LeftForeArm -1.446219 -0.000000 11.596352
LeftHand -0.515511 -0.000000 -16.896054
LeftHandThumb1 -26.253704 0.000000 33.147579
RightShoulder -4.696666 9.279533 -34.495663
RightArm 19.693695 50.534846 49.884847
RightForeArm -7.508436 0.000000 70.937383
RightHand -10.613702 0.000000 -42.600741
RightHandThumb1 -24.326973 -0.000000 -32.862282
LeftUpLeg -15.412120 -10.884576 17.296404
LeftLeg 147.005562 -0.000000 -0.000000
LeftFoot 19.357941 -2.703625 -26.460887
LeftToeBase 4.992270 -0.000000 -0.000000
RightUpLeg -45.861892 -10.917403 -17.202833
RightLeg 20.834460 -0.000000 -0.000000
RightFoot -24.074775 -15.430287 15.974113
RightToeBase 12.617883 -0.000000 -0.000000
